<?xml version="1.0" encoding="utf-8"?>
<svg xmlns="http://www.w3.org/2000/svg" id="Layer_1" data-name="Layer 1" viewBox="0 0 43.54 32.62">
	<defs>
		<style>
			.cls-1 {
				fill: none;
				stroke: #ff4f1f;
				stroke-linecap: round;
				stroke-linejoin: round;
			}
		</style>
	</defs>
	<g id="Cloud_API" data-name="Cloud API">
		<path class="cls-1"
			d="M9.85,11.4c8.2-3.1,11.8.1,17.2,0a8.32,8.32,0,0,0,2.6-.3,7.71,7.71,0,0,0,3.6-2.3l.5-.5A3.63,3.63,0,0,1,35.65,7c1.4-.3,5-1.4,5.8-1.1a7.6,7.6,0,0,1-1,1.8,2.6,2.6,0,0,0,.3.7,6.07,6.07,0,0,0,.7,1,2.23,2.23,0,0,1,.4,1.8,2.49,2.49,0,0,0,.3,1.7h0c.3.6-1,1.6-1.6,1.9a1.21,1.21,0,0,1-1,.1c-.4-.1-.7-.3-1.1-.4a13.36,13.36,0,0,0-2.3,1.6,10.34,10.34,0,0,0,1.9,9c.5.8,3.5,4.8,4.3,5.3a2.09,2.09,0,0,1,.6.4c.2.2,0,.8-.1.8a3.59,3.59,0,0,1-3.6-.5c-1.4-1-2.2-2.6-3.4-3.8a14.64,14.64,0,0,0-4.2-3.2,3.41,3.41,0,0,0-5.1,2,15.51,15.51,0,0,0-.5,3.4c.1.9,1.4,1.2,1.6,2.1-.2.2-3.2.5-3.8-.4-.4-.7-.7-5.4-.2-8.5l-5.3-.6a1.73,1.73,0,0,0-1,.1,1.34,1.34,0,0,0-.7.6,6.48,6.48,0,0,0-1.8,3.7,3.51,3.51,0,0,0,1.8,3.5,5.91,5.91,0,0,1,1.4.6c.4.3.7.9.4,1.3-1.1,0-2.7.3-3.7-.2a2.36,2.36,0,0,1-.9-.8c-2.1-2.5-2.4-6-1.6-9.2C7.55,21.2,4,26.4,3,28.9a1.5,1.5,0,0,0-.1,1.3c.2.4,1.6,1.6,1.3,1.8a7,7,0,0,1-2.5,0,.76.76,0,0,1-.5-.2c-.2-.1-.2-.3-.3-.5a8.43,8.43,0,0,1,1.4-7.5,16.38,16.38,0,0,0,2-2.6c.5-1,.4-2.2.7-3.3A6.57,6.57,0,0,1,6.65,15a3.78,3.78,0,0,0,1-1.2,2.07,2.07,0,0,0-1-2.2C6,11.1,3,10.7,3,8.3c0-6.2,21.1.6,17.4-7.8" />
	</g>
</svg>